<svg width="246" height="239" viewBox="0 0 246 239" fill="none" xmlns="http://www.w3.org/2000/svg">
<path d="M74.758 5.35978C76.0613 6.04571 77.6738 5.54526 78.3598 4.24199C79.0457 2.93872 78.5453 1.32615 77.242 0.640218C75.9387 -0.0457141 74.3262 0.454738 73.6402 1.75801C72.9543 3.06128 73.4547 4.67385 74.758 5.35978ZM66.4425 22.2329L76.4425 3.23287L75.5575 2.76713L65.5575 21.7671L66.4425 22.2329Z" fill="white"/>
<path d="M1.37887 50.8827C0.209504 51.778 -0.0126456 53.4518 0.882682 54.6211C1.77801 55.7905 3.45177 56.0126 4.62113 55.1173C5.7905 54.222 6.01265 52.5482 5.11732 51.3789C4.22199 50.2095 2.54823 49.9874 1.37887 50.8827ZM2.603 53.304L21.2494 77.6575L22.0434 77.0496L3.397 52.696L2.603 53.304Z" fill="white"/>
<rect x="171.926" y="15.6319" width="21.1974" height="20.0044" transform="rotate(18.34 171.926 15.6319)" stroke="white"/>
<rect x="193.696" y="208.33" width="37.8736" height="35.7843" transform="rotate(-34.8352 193.696 208.33)" stroke="white"/>
<path d="M165.901 142.51C167.287 142.012 168.007 140.485 167.51 139.099C167.012 137.713 165.485 136.993 164.099 137.49C162.713 137.988 161.993 139.515 162.49 140.901C162.988 142.287 164.515 143.007 165.901 142.51ZM179.471 178.831L165.471 139.831L164.529 140.169L178.529 179.169L179.471 178.831Z" fill="white"/>
</svg>
