<svg width="203" height="277" viewBox="0 0 203 277" fill="none" xmlns="http://www.w3.org/2000/svg">
<path d="M138.935 100.258C140.182 101.041 141.828 100.666 142.612 99.4185C143.395 98.1714 143.019 96.5253 141.772 95.7419C140.525 94.9585 138.879 95.3344 138.095 96.5815C137.312 97.8286 137.688 99.4747 138.935 100.258ZM101.423 160.912L140.777 98.266L139.93 97.734L100.577 160.38L101.423 160.912Z" fill="white"/>
<path d="M121.824 5.53609C123.225 5.08088 123.991 3.57642 123.536 2.17577C123.081 0.775126 121.576 0.00870001 120.176 0.463909C118.775 0.919119 118.009 2.42359 118.464 3.82423C118.919 5.22487 120.424 5.9913 121.824 5.53609ZM134.476 42.8455L121.476 2.84546L120.524 3.15454L133.524 43.1545L134.476 42.8455Z" fill="white"/>
<path d="M200 45.6667C201.473 45.6667 202.667 44.4728 202.667 43C202.667 41.5272 201.473 40.3333 200 40.3333C198.527 40.3333 197.333 41.5272 197.333 43C197.333 44.4728 198.527 45.6667 200 45.6667ZM200.5 98V43H199.5V98H200.5Z" fill="white"/>
<path d="M88 224.667C89.4728 224.667 90.6667 223.473 90.6667 222C90.6667 220.527 89.4728 219.333 88 219.333C86.5272 219.333 85.3333 220.527 85.3333 222C85.3333 223.473 86.5272 224.667 88 224.667ZM88.5 277V222H87.5V277H88.5Z" fill="white"/>
<rect x="29.0092" y="59.1833" width="14" height="13" transform="rotate(12.0352 29.0092 59.1833)" stroke="white"/>
<rect x="74.6337" y="113.834" width="10" height="10" transform="rotate(-18.662 74.6337 113.834)" stroke="white"/>
<rect x="0.633704" y="193.834" width="10" height="10" transform="rotate(-18.662 0.633704 193.834)" stroke="white"/>
</svg>
